# xmcd
#
# Track frame offsets: 
#        150
#        18483
#        27160
#        39877
#        55054
#        67177
#        78134
#        91516
#        101998
#        118100
#        134042
#        147129
#        154381
#        162954
#        177666
#
# Disc length: 2490 seconds
#
# Revision: 0
# Processed by: cddbd v1.5.2PL0 Copyright (c) Steve Scherf et al.
# Submitted via: ExactAudioCopy v0.99pb4
#
DISCID=ca09b80f
DTITLE=Paul Ansell's Number Nine - Number Nine
DYEAR=1996
DGENRE=Rock and Roll
TTITLE0=Hey Joe
TTITLE1=If I ever
TTITLE2=Ruby
TTITLE3=Red light
TTITLE4=Proud Mary
TTITLE5=That's why
TTITLE6=The stranger
TTITLE7=Mona Lisa
TTITLE8=Simply aware
TTITLE9=Dream Baby
TTITLE10=Pieces of my life
TTITLE11=This time I've hurt her more than she loves me
TTITLE12=Dark moon
TTITLE13=Sitting and thinking
TTITLE14=Red cadillac and a black moustache
EXTD=
EXTT0=
EXTT1=
EXTT2=
EXTT3=
EXTT4=
EXTT5=
EXTT6=
EXTT7=
EXTT8=
EXTT9=
EXTT10=
EXTT11=
EXTT12=
EXTT13=
EXTT14=
PLAYORDER=
